<?xml version="1.0" encoding="UTF-8"?>
<svg id="Layer_1" data-name="Layer 1" xmlns="http://www.w3.org/2000/svg" viewBox="0 0 612 792">
  <defs>
    <style>
      .cls-1 {
        fill: #2a286b;
      }

      .cls-2 {
        fill: #fffef2;
      }

      .cls-3 {
        fill: #2b2a6a;
      }
    </style>
  </defs>
  <rect class="cls-2" width="612" height="792"/>
  <g>
    <rect class="cls-1" x="82.71" y="290.09" width="166.98" height="166.98" rx="37.53" ry="37.53"/>
    <g>
      <path class="cls-2" d="M207.81,405.99h-24.32c6.82-16.59,18.25-44.44,26.35-64.16,4.47-10.89-3.54-22.84-15.31-22.84H127.64c-5.56,0-10.52,3.94-11.31,9.44-.98,6.85,4.31,12.73,10.97,12.73h24.67c-6.82,16.59-18.25,44.44-26.35,64.16-4.47,10.89,3.54,22.84,15.31,22.84h67.24c6.66,0,11.95-5.88,10.97-12.73-.79-5.5-5.76-9.44-11.31-9.44Zm-57.84-10.3s14.21-34.65,19.95-48.7c1.44-3.52,4.86-5.81,8.66-5.81h0c5.31,0,8.93,5.39,6.91,10.31,0,0-14.21,34.65-19.95,48.7-1.44,3.52-4.86,5.81-8.66,5.81h0c-5.31,0-8.93-5.39-6.91-10.3Z"/>
      <path class="cls-2" d="M172.45,348.6c-.59,.37-1.33-.18-1.12-.84,.35-1.11,1.01-2.16,1.99-3.02,2.19-1.93,5.53-2.13,7.96-.53,.45,.3,.85,.64,1.2,1.01,2.18,2.31,2.43,5.93,.45,8.55,0,0,0,0,0,0-.24,.32-.75,.15-.76-.24-.08-1.82-.92-3.56-2.45-4.72-2.14-1.63-5.03-1.62-7.26-.22,0,0-.01,0-.02,0Z"/>
    </g>
  </g>
  <g>
    <g>
      <path class="cls-1" d="M508.17,409.7c-.9-.37-1.89-.57-2.95-.57,0,0-30.35,.02-48.3,0h-6.41c-3.18,0-7.32,.01-11.91,.01h-36.61c-.17,0-.33,0-.49,.02h-.03c-.09-.01-.18-.02-.27-.02h-.13c-3.76,0-7.38,0-10.61-.01-.54,.01-1.08,.01-1.6,0-1.62,.01-3.35,.01-5.16,.01-.04-.01-.08-.01-.12,0h-20.94c-5.76,0-11.13,0-15.22-.01h-1.17c-2.54,0-5.24,.01-8.02,.01-.14-.02-.26-.02-.4-.02h-29.15c-1.33,0-2.28-.99-2.44-2.12-.02-.12-.02-.24-.02-.36,.01-.24,.05-.47,.13-.7,.01-.06,.04-.12,.07-.17,.02-.08,.06-.17,.11-.25,.04-.08,.09-.16,.15-.25l12.41-17.59,10.13-14.34,.14-.06,7.54-10.68,11.18-15.81c2.22-3.16,3.42-6.93,3.42-10.78,0-5.5-4.47-9.97-9.99-9.97h-46.74c-2.19,0-3.98,1.77-3.98,3.99,0,3.51,1.44,6.7,3.75,9.02,2.31,2.31,5.51,3.75,9.02,3.75h16.68c1.65,0,2.96,.95,3.58,2.26,.43,.86,.55,1.89,.23,2.88v.02c-.1,.38-.29,.74-.53,1.11l-12.41,17.78-14.02,20.07-2.42,3.46-2.31,3.33-9.41,13.47c-1.33,1.9-2.04,4.15-2.04,6.47v2.32c0,5.46,4.44,9.89,9.9,9.89h47.14c2.15,0,4.29-.01,6.38-.01h.15s6.91,0,16.07-.01h21.21s.01,.01,.02,0h17.35c.19,0,.39,0,.57-.02,0,0,.01,0,.02,0,.17,.02,.34,.03,.52,.03h.16s19.36-.01,36.3-.01h11.79c.09,.01,.18,.01,.27,.01,0,0,38.89-.02,54.65-.01,3.95,.01,7.5-2.36,9-6.02,1.69-4.13-.45-8.57-4.24-10.12Zm-1.26,13.77c-1.21,.61-2.48,.81-3.69,.72-.72-.06-.96-.98-.36-1.4v-.02c2.23-1.58,3.37-4.36,2.66-7.05-.51-1.94-1.86-3.42-3.58-4.22-.23-.11-.31-.36-.22-.57,.05-.12,.15-.22,.29-.25,3.3-.88,6.69,.79,8.05,3.79,.21,.49,.38,1,.5,1.55,.57,2.97-.93,6.11-3.65,7.45Z"/>
      <path class="cls-2" d="M506.91,423.47c-1.21,.61-2.48,.81-3.69,.72-.72-.06-.96-.98-.36-1.4v-.02c2.23-1.58,3.37-4.36,2.66-7.05-.51-1.94-1.86-3.42-3.58-4.22-.23-.11-.31-.36-.22-.57,.05-.12,.15-.22,.29-.25,3.3-.88,6.69,.79,8.05,3.79,.21,.49,.38,1,.5,1.55,.57,2.97-.93,6.11-3.65,7.45Z"/>
      <path class="cls-1" d="M446.98,374.74c-.43-.71-.06-1.63,.73-1.86,5.77-1.69,10.22-4.54,13.37-8.54,3.44-4.37,5.16-9.66,5.16-15.88,0-5.25-1.18-9.92-3.52-14.01-2.35-4.08-5.86-7.29-10.55-9.63-4.68-2.35-10.42-3.52-17.21-3.52h-32.4c-1.66,0-3,1.34-3,3v79.71c0,1.66,1.34,3,3,3h14.74c1.65,0,2.99-1.34,2.99-3v-26.38c0-.82,.34-1.57,.88-2.11,.54-.55,1.28-.88,2.11-.88,1.08,0,2.07,.57,2.6,1.51l16.83,29.35c.53,.93,1.52,1.51,2.59,1.51h15.87c2.34,0,3.77-2.55,2.57-4.55l-16.76-27.72Zm-5.83-16.94c-1.15,.88-2.47,1.58-3.93,2.04-1.29,.4-2.58,.6-3.86,.61h-.22c-5.45-.06-10.5-3.58-12.24-9.06-.22-.7-.38-1.41-.48-2.12-.09-.61-.13-1.22-.13-1.82,0-3.24,1.22-6.33,3.35-8.69,1.49-1.66,3.43-2.95,5.71-3.68,.01,0,.02,0,.03,0,.74-.23,1.36,.6,.94,1.25-.49,.77-.9,1.59-1.21,2.44-.92,2.47-1.05,5.22-.2,7.88,1.59,5.03,6.22,8.28,11.37,8.55h.04c1.36,.07,1.92,1.79,.83,2.61Z"/>
      <path class="cls-2" d="M441.15,357.8c-1.15,.88-2.47,1.58-3.93,2.04-1.29,.4-2.58,.6-3.86,.61h-.22c-5.45-.06-10.5-3.58-12.24-9.06-.22-.7-.38-1.41-.48-2.12-.09-.61-.13-1.22-.13-1.82,0-3.24,1.22-6.33,3.35-8.69,1.49-1.66,3.43-2.95,5.71-3.68,.01,0,.02,0,.03,0,.74-.23,1.36,.6,.94,1.25-.49,.77-.9,1.59-1.21,2.44-.92,2.47-1.05,5.22-.2,7.88,1.59,5.03,6.22,8.28,11.37,8.55h.04c1.36,.07,1.92,1.79,.83,2.61Z"/>
      <path class="cls-3" d="M488.47,339.36h-3.02c-4.89,0-8.84,3.96-8.84,8.86v49.94c0,4.87,3.95,8.84,8.84,8.84h3.02c4.9,0,8.87-3.97,8.87-8.84v-49.94c0-4.9-3.97-8.86-8.87-8.86Z"/>
      <path class="cls-3" d="M377.81,339.36h-3.02c-4.89,0-8.86,3.96-8.86,8.86v49.94c0,4.87,3.97,8.84,8.86,8.84h3.02c4.9,0,8.85-3.97,8.85-8.84v-49.94c0-4.9-3.95-8.86-8.85-8.86Z"/>
    </g>
    <path class="cls-1" d="M362.36,409.12s-6.35,0-14.94,.01c4.09,.01,9.46,.01,15.22,.01-.09-.02-.19-.02-.28-.02Z"/>
    <path class="cls-1" d="M400.94,409.13h-10.48c3.23,.01,6.85,.01,10.61,.01-.04-.01-.09-.01-.13-.01Z"/>
    <path class="cls-1" d="M438.49,409.13s-2.39,0-6.22,.01h6.33s-.07-.01-.11-.01Zm-37.29,.01c.09,0,.18,0,.27,.02h.03c.16-.02,.32-.02,.49-.02h-.79Zm-1.48,16.68s-.02,0-.02,0c-.18,.02-.38,.02-.57,.02h-17.35c.08,.01,.17,.01,.25,.01h18.21c-.18,0-.35-.01-.52-.03Zm-15.89-16.69s-.09,0-.13,.01c1.81,0,3.54,0,5.16-.01h-5.03Z"/>
    <path class="cls-1" d="M402.2,409.13c-.07,0-.14,0-.21,.01h5.71c-2.03,0-3.89,0-5.5-.01Z"/>
    <circle class="cls-3" cx="376.3" cy="328.42" r="7.12"/>
    <circle class="cls-3" cx="486.98" cy="328.42" r="7.12"/>
  </g>
</svg>