<?xml version="1.0" encoding="UTF-8"?>
<svg id="Layer_3" data-name="Layer 3" xmlns="http://www.w3.org/2000/svg" viewBox="0 0 612 792">
  <defs>
    <style>
      .cls-1 {
        fill: #fff;
      }

      .cls-2 {
        fill: #2a286b;
      }
    </style>
  </defs>
  <rect class="cls-2" x="44.04" y="118.87" width="523.91" height="523.91" rx="58.65" ry="58.65"/>
  <g>
    <path class="cls-1" d="M436.56,482.52h-76.32c21.39-52.07,57.27-139.44,82.68-201.29,14.04-34.17-11.1-71.65-48.04-71.65H185.01c-17.44,0-33.02,12.37-35.5,29.63-3.09,21.5,13.51,39.94,34.41,39.94h77.4c-21.39,52.07-57.27,139.44-82.68,201.3-14.04,34.17,11.1,71.65,48.04,71.65h210.96c20.91,0,37.5-18.44,34.41-39.94-2.48-17.26-18.06-29.63-35.5-29.63Zm-181.48-32.33s44.58-108.72,62.58-152.81c4.51-11.04,15.24-18.24,27.16-18.24h0c16.67,0,28.01,16.91,21.67,32.33,0,0-44.59,108.72-62.58,152.81-4.51,11.04-15.24,18.24-27.16,18.24h0c-16.67,0-28.01-16.91-21.67-32.33Z"/>
    <path class="cls-1" d="M325.58,302.45c-1.84,1.17-4.17-.56-3.51-2.64,1.1-3.49,3.17-6.78,6.24-9.49,6.86-6.05,17.35-6.69,24.99-1.66,1.42,.93,2.68,2,3.78,3.17,6.84,7.26,7.64,18.6,1.42,26.81,0,.01-.02,.02-.02,.03-.75,.99-2.34,.48-2.4-.76-.26-5.71-2.88-11.17-7.67-14.8-6.73-5.1-15.78-5.09-22.77-.69-.02,.01-.03,.02-.05,.03Z"/>
  </g>
</svg>